PathFileType  4	(X/Y/Z) C:\Users\antoi\Documents\MyRepositories\mobilecap\ResultsAnalysis
DataRate	CameraRate	NumFrames	NumMarkers	Units	OrigDataRate	OrigDataStartFrame	OrigNumFrames
100.0	100.0	6	51	mm	100.0	65	129
Frame#	Time	r_knee			r_shank_antsup			r_ankle			r_calc			r_5meta			r_toe			L_knee			L_shank_antsup			L_ankle			L_calc			L_5meta			L_toe			r_sh2			r_sh3			r_sh4			L_sh2			L_sh3			r_thigh1			r_thigh2			r_thigh3			r_thigh4			r_thigh5			L_thigh1			L_thigh2			L_thigh3			L_thigh4			r.ASIS			r.PSIS			L.ASIS			L.PSIS			C7			R_Shoulder			L_Shoulder			R_Sternum			L_Sternum			R_humerus			R_elbow_med			R_elbow_lat			R_forearm			R_wrist_radius			R_wrist_ulna			L_humerus			L_elbow_med			L_elbow_lat			L_forearm			L_wrist_radius			L_wrist_ulna			R_HJC			L_HJC			R_HJC_reg			L_HJC_reg			
		X1	Y1	Z1	X2	Y2	Z2	X3	Y3	Z3	X4	Y4	Z4	X5	Y5	Z5	X6	Y6	Z6	X7	Y7	Z7	X8	Y8	Z8	X9	Y9	Z9	X10	Y10	Z10	X11	Y11	Z11	X12	Y12	Z12	X13	Y13	Z13	X14	Y14	Z14	X15	Y15	Z15	X16	Y16	Z16	X17	Y17	Z17	X18	Y18	Z18	X19	Y19	Z19	X20	Y20	Z20	X21	Y21	Z21	X22	Y22	Z22	X23	Y23	Z23	X24	Y24	Z24	X25	Y25	Z25	X26	Y26	Z26	X27	Y27	Z27	X28	Y28	Z28	X29	Y29	Z29	X30	Y30	Z30	X31	Y31	Z31	X32	Y32	Z32	X33	Y33	Z33	X34	Y34	Z34	X35	Y35	Z35	X36	Y36	Z36	X37	Y37	Z37	X38	Y38	Z38	X39	Y39	Z39	X40	Y40	Z40	X41	Y41	Z41	X42	Y42	Z42	X43	Y43	Z43	X44	Y44	Z44	X45	Y45	Z45	X46	Y46	Z46	X47	Y47	Z47	X48	Y48	Z48	X49	Y49	Z49	X50	Y50	Z50	X51	Y51	Z51	

65	0.64000000	625.22653	463.46890	-88.64034	615.29216	389.47815	-85.92927	361.06057	172.18707	-127.99037	306.71352	197.53025	-175.01692	391.47258	55.55006	-114.33288	439.27465	48.04294	-165.19752	843.38378	461.68630	-352.72979	896.67362	389.11353	-329.84045	883.94648	82.42043	-323.33828	825.90318	48.06036	-285.60202	994.01602	44.74349	-340.66540	1036.87597	69.21944	-281.99416	529.99971	315.97572	-87.44117	566.00675	445.72521	-72.09142	471.93496	376.25838	-80.71867	821.79891	390.15387	-381.65942	834.72270	268.25486	-381.85079	718.21662	700.19756	-58.12241	705.30797	587.59833	-65.98733	637.29202	573.90002	-67.25960	606.08743	711.77060	-69.39076	594.85688	600.59450	-96.84513	802.18071	731.38319	-421.46746	845.08690	602.70319	-388.57199	697.58929	693.82822	-424.16449	735.60994	573.35313	-372.14955	791.16615	906.72932	-127.73480	581.29342	932.50869	-214.14233	797.13075	908.60037	-349.32455	586.05275	928.40675	-296.09573	667.41685	1377.21276	-238.49927	722.94493	1348.15045	-99.23567	704.69866	1346.51619	-378.77153	793.83826	1313.25465	-219.96988	790.86087	1313.33286	-260.25803	763.60960	1239.64319	-45.86497	711.84837	1021.62871	-40.24886	757.87852	1037.79325	5.27529	842.06114	993.54106	-8.47866	928.43510	882.25311	-42.38362	910.62702	867.09848	-11.17290	693.70301	1244.76860	-450.17716	627.85877	1027.97188	-425.88069	644.72996	1047.46603	-486.99099	698.80826	958.29066	-515.00791	731.39945	833.27792	-517.31263	697.22500	830.00218	-539.16341	708.99447	817.93670	-139.54960	719.42993	820.15840	-346.76497	718.58298	843.34907	-159.01485	727.05607	836.04630	-304.89008	
66	0.65000000	647.95818	461.43734	-85.52189	637.07652	387.72872	-82.93096	376.65103	180.29522	-126.20891	325.00898	210.74156	-173.06608	396.95587	61.17208	-113.75159	444.46725	50.19964	-164.15406	853.76423	462.76277	-354.14662	905.15077	388.62754	-331.11703	884.73864	82.56763	-323.82958	826.29588	48.60732	-285.74770	994.41491	43.82003	-340.78905	1037.74738	67.12013	-281.85172	549.59086	316.89288	-85.01266	589.58630	445.32207	-69.18516	493.30522	378.94864	-78.79073	830.42718	391.19326	-383.20751	840.63274	269.09528	-383.16768	734.70224	700.37485	-58.33296	724.69564	587.30820	-64.63207	657.21312	571.86011	-65.67280	622.43337	709.04736	-69.99484	614.38233	597.24362	-95.58020	813.94518	733.31407	-422.91020	856.55616	604.51256	-390.13590	709.49619	695.75903	-426.81911	747.00405	575.04881	-374.86930	803.71694	907.14590	-129.94643	593.52727	932.71004	-214.14457	808.52304	910.42789	-351.39475	597.58021	929.32731	-296.14279	680.17745	1378.18527	-240.72748	735.28103	1349.32185	-101.19072	718.30406	1347.17163	-380.79734	806.44394	1314.14707	-221.78244	803.64228	1314.12840	-262.01057	774.39955	1240.39295	-47.15080	720.02519	1023.16320	-42.99496	765.66776	1038.50279	3.48043	849.38658	992.96499	-8.96570	934.80122	880.51385	-41.41341	916.18361	865.47139	-10.49135	708.25976	1245.19606	-452.07096	642.16349	1028.48189	-428.25170	659.79937	1047.86191	-489.18465	714.24315	958.58648	-516.24802	746.85864	833.52521	-517.99494	712.79722	830.55212	-540.41231	722.06855	818.11852	-141.48762	730.86855	821.77878	-348.75089	731.55636	843.52383	-161.10977	738.76598	837.50602	-307.00121	
67	0.66000000	671.55981	459.51297	-82.59618	660.11276	386.07919	-80.53963	393.83268	188.60678	-124.60524	345.40796	223.70433	-171.49749	403.98237	67.77756	-113.16019	451.16863	53.11621	-162.84593	863.61796	463.68479	-355.40193	913.07279	388.07780	-332.28503	885.22491	82.78784	-324.30348	826.55272	49.02241	-285.89309	994.64716	43.32328	-340.87120	1038.33283	65.58854	-281.70308	570.63501	317.75335	-83.09859	614.47000	444.72604	-66.32204	516.14004	381.33179	-76.68745	838.46985	392.13214	-384.56766	846.00846	269.88549	-384.31324	751.29738	700.70630	-58.64319	744.50871	587.23518	-63.52406	677.64387	569.87891	-64.21050	638.88061	706.19240	-70.55086	634.26778	593.82645	-94.15971	825.55495	735.17145	-424.15371	867.77449	606.21498	-391.50419	721.30488	697.62696	-429.59787	758.09826	576.68846	-377.60692	815.87391	907.52117	-132.03537	605.40208	932.86958	-213.97912	819.67259	912.33480	-353.37206	608.80211	930.36474	-295.99662	692.84601	1379.22607	-242.79497	747.53380	1350.49531	-102.98671	731.75469	1347.85525	-382.64008	818.91531	1314.95709	-223.42469	816.27333	1314.86514	-263.58872	785.08410	1241.14853	-48.34818	728.21158	1024.62183	-45.69121	773.25907	1039.26240	1.73980	856.45495	992.38487	-9.34016	940.75673	878.69376	-40.30640	921.36335	863.80503	-9.65571	722.75616	1245.66463	-453.80844	656.54293	1028.98005	-430.68780	675.03392	1048.30161	-491.37105	729.92739	958.97883	-517.45028	762.63143	833.90569	-518.67786	728.76479	831.14655	-541.65923	734.79545	818.25150	-143.37053	741.97511	823.50709	-350.65950	744.19777	843.50654	-163.27438	750.24367	839.05293	-309.19859	
68	0.67000000	695.90452	457.90341	-79.98596	684.18620	384.71963	-78.72614	412.41638	196.88880	-123.28757	367.56111	235.90760	-170.56288	412.96784	75.11079	-112.51903	459.91984	56.75102	-161.15104	872.70780	464.36488	-356.46289	920.33715	387.43161	-333.31326	885.55077	83.00955	-324.69375	826.73819	49.33878	-286.01683	994.79396	43.08973	-340.92255	1038.72545	64.45163	-281.57608	592.88721	318.72640	-81.69752	640.35556	444.18317	-63.69082	540.18410	383.56542	-74.51291	845.80250	392.89059	-385.67629	850.82081	270.55113	-385.23229	767.98069	701.28149	-59.08433	764.71557	587.49052	-62.69727	698.51428	568.09533	-62.94970	655.45493	703.33374	-71.08119	654.52620	590.53502	-92.74633	836.86982	736.78627	-425.26178	878.49429	607.61748	-392.69972	732.79692	699.38830	-432.31130	768.62002	578.24161	-380.13379	827.66500	907.91809	-133.95417	616.93711	933.00367	-213.70749	830.64665	914.24259	-355.21090	619.78488	931.46943	-295.72516	705.40984	1380.32167	-244.69722	759.67048	1351.66143	-104.61464	745.02517	1348.56841	-384.29435	831.23031	1315.67647	-224.88273	828.74323	1315.54039	-264.97537	795.65564	1241.90613	-49.45667	736.42504	1025.95456	-48.23644	780.68980	1040.06728	0.07560	863.28748	991.81421	-9.60930	946.24444	876.76094	-39.11993	926.15623	862.11445	-8.68122	737.14711	1246.18605	-455.37701	670.98318	1029.47700	-433.16017	690.41324	1048.79389	-493.52765	745.83504	959.48825	-518.60129	778.69405	834.44031	-519.34223	745.10950	831.78507	-542.87398	747.18205	818.39544	-145.12938	752.83218	825.26283	-352.42302	756.50245	843.36007	-165.45343	761.56674	840.63345	-311.41801	
69	0.68000000	720.81050	456.80114	-77.78309	709.02802	383.81978	-77.41349	432.17935	204.90466	-122.36137	390.95036	246.85628	-170.44407	424.38113	82.82533	-111.75123	471.29769	61.01694	-158.98946	880.87106	464.77439	-357.32188	926.88082	386.69326	-334.19536	885.81325	83.19375	-324.95803	826.88955	49.59333	-286.10060	994.90357	42.99495	-340.95161	1038.99148	63.57738	-281.48200	616.06247	319.96553	-80.76191	666.87925	443.93413	-61.43881	565.11969	385.81216	-72.39334	852.34420	393.44273	-386.51135	855.05804	271.06316	-385.91682	784.72737	702.17091	-59.66114	785.24016	588.16995	-62.15112	719.72382	566.63757	-61.95367	672.19432	700.59831	-71.60756	675.12391	587.53499	-91.50551	847.77945	738.07747	-426.27886	888.54057	608.63250	-393.72530	743.78615	701.04823	-434.77360	778.37312	579.72311	-382.27485	839.12127	908.40727	-135.67252	628.15805	933.14104	-213.42853	841.49882	916.08059	-356.88053	630.59268	932.58345	-295.43655	717.85765	1381.45969	-246.43837	771.65509	1352.81620	-106.07606	758.10478	1349.31501	-385.76728	843.37306	1316.30991	-226.15011	841.04457	1316.16091	-266.16344	806.09527	1242.66593	-50.47486	744.59894	1027.18292	-50.54414	788.00172	1040.92072	-1.48338	869.91023	991.27077	-9.78043	951.23783	874.70429	-37.89866	930.56595	860.41874	-7.57869	751.40728	1246.77350	-456.77398	685.46860	1029.98254	-435.63697	705.91088	1049.34383	-495.62971	761.92797	960.13363	-519.69760	795.01921	835.14610	-519.97139	761.79877	832.49267	-544.04133	759.23449	818.61873	-146.71541	763.52933	826.96605	-353.99752	768.46433	843.18283	-167.58097	772.79583	842.19314	-313.58522	
70	0.69000000	746.05856	456.34984	-76.03696	734.34873	383.50341	-76.50656	452.93400	212.43168	-121.89738	414.99772	256.14151	-171.18883	438.69228	90.52179	-110.76024	485.82054	65.76406	-156.36689	888.03856	464.94424	-357.99572	932.68678	385.89818	-334.93781	886.06173	83.33178	-325.09055	827.02338	49.81851	-286.13550	994.99507	42.95864	-340.96508	1039.17398	62.88543	-281.41860	639.88786	321.56779	-80.21548	693.66788	444.15925	-59.64785	590.60288	388.19629	-70.47421	858.07548	393.81173	-387.08987	858.73627	271.43444	-386.39503	801.50608	703.41722	-60.35398	805.95951	589.34293	-61.85614	741.14827	565.61120	-61.26158	689.12005	698.09842	-72.14779	695.98015	584.95244	-90.57015	858.22143	739.05252	-427.22259	897.82613	609.27267	-394.57039	754.15219	702.64962	-436.84131	787.25214	581.18455	-383.94009	850.27115	909.05437	-137.17421	639.09648	933.32028	-213.26378	852.26353	917.79599	-358.36766	641.27837	933.65574	-295.26053	730.17749	1382.63165	-248.02922	783.45330	1353.96049	-107.38115	770.99421	1350.10094	-387.07539	855.33766	1316.87978	-227.22713	853.17147	1316.74385	-267.15745	816.38044	1243.43218	-51.39946	752.60879	1028.39806	-52.55588	795.23360	1041.83298	-2.90247	876.35375	990.77410	-9.86003	955.76503	872.55115	-36.66464	934.62098	858.74416	-6.36020	765.53124	1247.43991	-458.00613	699.98046	1030.50396	-438.08808	721.49280	1049.95300	-497.65389	778.15986	960.92870	-520.74309	811.57735	836.03478	-520.55239	778.79114	833.30592	-545.15381	770.95424	818.98766	-148.10554	774.14999	828.55155	-355.36728	780.08002	843.08635	-169.58497	783.96427	843.68501	-315.62588	
